<svg width="170" height="170" viewBox="0 0 170 170" fill="none" xmlns="http://www.w3.org/2000/svg">
<g filter="url(#filter0_d_1_83)">
<circle cx="83" cy="81" r="60" fill="white"/>
</g>
<path d="M86.9375 98.5625C86.9375 99.4935 86.5794 100.317 85.8633 101.033C85.2188 101.678 84.431 102 83.5 102C82.569 102 81.7454 101.678 81.0293 101.033C80.3848 100.317 80.0625 99.4935 80.0625 98.5625C80.0625 97.6315 80.3848 96.8438 81.0293 96.1992C81.7454 95.4831 82.569 95.125 83.5 95.125C84.431 95.125 85.2188 95.4831 85.8633 96.1992C86.5794 96.8438 86.9375 97.6315 86.9375 98.5625ZM100.688 59.0312V103.719C100.688 105.151 100.186 106.368 99.1836 107.371C98.181 108.374 96.9635 108.875 95.5312 108.875H71.4688C70.0365 108.875 68.819 108.374 67.8164 107.371C66.8138 106.368 66.3125 105.151 66.3125 103.719V59.0312C66.3125 57.599 66.8138 56.3815 67.8164 55.3789C68.819 54.3763 70.0365 53.875 71.4688 53.875H95.5312C96.9635 53.875 98.181 54.3763 99.1836 55.3789C100.186 56.3815 100.688 57.599 100.688 59.0312ZM97.25 59.0312C97.25 58.5299 97.071 58.1361 96.7129 57.8496C96.4264 57.4915 96.0326 57.3125 95.5312 57.3125H71.4688C70.9674 57.3125 70.5378 57.4915 70.1797 57.8496C69.8932 58.1361 69.75 58.5299 69.75 59.0312V103.719C69.75 104.22 69.8932 104.614 70.1797 104.9C70.5378 105.258 70.9674 105.438 71.4688 105.438H95.5312C96.0326 105.438 96.4264 105.258 96.7129 104.9C97.071 104.614 97.25 104.22 97.25 103.719V59.0312Z" fill="#311A8A"/>
<path d="M79.5488 72.7402C79.1947 72.8288 78.8848 72.9948 78.6191 73.2383C78.3757 73.4818 78.1986 73.7695 78.0879 74.1016L75 83.3984L75.498 83.8965L80.4785 78.916C80.3678 78.6947 80.3125 78.4622 80.3125 78.2188C80.3125 77.776 80.4674 77.3997 80.7773 77.0898C81.0872 76.7799 81.4635 76.625 81.9062 76.625C82.349 76.625 82.7253 76.7799 83.0352 77.0898C83.3451 77.3997 83.5 77.776 83.5 78.2188C83.5 78.6615 83.3451 79.0378 83.0352 79.3477C82.7253 79.6576 82.349 79.8125 81.9062 79.8125C81.6628 79.8125 81.4303 79.7572 81.209 79.6465L76.2285 84.627L76.7266 85.125L86.0234 82.0371C86.3555 81.9264 86.6432 81.7493 86.8867 81.5059C87.1302 81.2402 87.2962 80.9303 87.3848 80.5762L88.8125 75.5625L84.5625 71.3125L79.5488 72.7402ZM91.5352 70.582L89.543 68.5898C89.2331 68.2799 88.8568 68.125 88.4141 68.125C87.9714 68.125 87.5951 68.2799 87.2852 68.5898L85.3926 70.4824L89.6426 74.7324L91.5352 72.8398C91.8451 72.5299 92 72.1536 92 71.7109C92 71.2682 91.8451 70.8919 91.5352 70.582Z" fill="#311A8A"/>
<defs>
<filter id="filter0_d_1_83" x="0" y="0" width="170" height="170" filterUnits="userSpaceOnUse" color-interpolation-filters="sRGB">
<feFlood flood-opacity="0" result="BackgroundImageFix"/>
<feColorMatrix in="SourceAlpha" type="matrix" values="0 0 0 0 0 0 0 0 0 0 0 0 0 0 0 0 0 0 127 0" result="hardAlpha"/>
<feOffset dx="2" dy="4"/>
<feGaussianBlur stdDeviation="12.5"/>
<feComposite in2="hardAlpha" operator="out"/>
<feColorMatrix type="matrix" values="0 0 0 0 0 0 0 0 0 0 0 0 0 0 0 0 0 0 0.12 0"/>
<feBlend mode="normal" in2="BackgroundImageFix" result="effect1_dropShadow_1_83"/>
<feBlend mode="normal" in="SourceGraphic" in2="effect1_dropShadow_1_83" result="shape"/>
</filter>
</defs>
</svg>
