<svg width="50" height="50" viewBox="0 0 50 50" fill="none" xmlns="http://www.w3.org/2000/svg">
<circle cx="25" cy="25" r="24.5" stroke="#301A89"/>
<path d="M33.4727 28.9766L29.5352 27.2891C29.4297 27.2539 29.3242 27.2188 29.1836 27.2188C28.9375 27.2188 28.6914 27.3594 28.5508 27.5352L26.793 29.6797C24.0508 28.3789 21.8711 26.1992 20.5703 23.457L22.7148 21.6992C22.8906 21.5586 23.0312 21.3125 23.0312 21.0312C23.0312 20.9258 22.9961 20.8203 22.9609 20.7148L21.2734 16.7773C21.1328 16.4609 20.8164 16.25 20.4648 16.25C20.4297 16.25 20.3594 16.2852 20.2891 16.2852L16.6328 17.1289C16.2461 17.2344 16 17.5508 16 17.9375C16 26.9727 23.2773 34.25 32.3125 34.25C32.6992 34.25 33.0156 34.0039 33.1211 33.6172L33.9648 29.9609C33.9648 29.8906 33.9648 29.8203 33.9648 29.7852C33.9648 29.4336 33.7539 29.1172 33.4727 28.9766Z" fill="#311A8A"/>
</svg>
