<svg width="66" height="66" viewBox="0 0 66 66" fill="none" xmlns="http://www.w3.org/2000/svg">
<path d="M65.2554 19.118C65.2554 32.7548 65.2554 46.3933 65.2554 60.0301C65.223 60.1084 65.1771 60.1816 65.1583 60.2633C64.4211 63.3265 62.3149 65.0002 59.1785 65.0002C41.4655 65.0019 23.7507 65.0019 6.03771 65.0002C2.44675 65.0002 0.00169649 62.5517 -6.19052e-06 58.9574C-0.00170888 45.9148 -6.19052e-06 32.8739 -6.19052e-06 19.8331C-6.19052e-06 19.6083 -6.19052e-06 19.3836 -6.19052e-06 19.118C21.808 19.118 43.5308 19.118 65.2554 19.118ZM40.2719 26.9333C40.2617 25.8555 39.6079 25.0654 38.7293 24.8867C37.8098 24.6994 36.9568 25.1982 36.5243 26.2062C32.7562 34.9921 28.9899 43.7796 25.2287 52.5689C24.7247 53.7489 25.1146 54.8624 26.16 55.2949C27.1834 55.7189 28.2356 55.2387 28.7294 54.0894C32.4991 45.3035 36.2638 36.5177 40.0233 27.7284C40.1561 27.4185 40.2259 27.0848 40.2719 26.9333ZM14.6771 40.1495C14.9223 39.9469 15.1113 39.7851 15.3054 39.6302C17.6245 37.7743 19.9504 35.9269 22.2626 34.0607C23.1872 33.3132 23.3285 32.1537 22.6406 31.299C21.968 30.4612 20.817 30.3352 19.9112 31.0538C16.7391 33.5755 13.5721 36.1056 10.4187 38.6512C9.41925 39.4582 9.41244 40.8272 10.4102 41.6326C13.5789 44.1934 16.7527 46.7474 19.9691 49.2487C20.3658 49.5568 21.0401 49.6675 21.5628 49.6199C22.3392 49.5483 22.8381 48.9813 23.0118 48.2049C23.1923 47.3978 22.9011 46.7423 22.2711 46.2366C20.3522 44.6957 18.4265 43.1616 16.5058 41.624C15.915 41.1507 15.3259 40.6739 14.6771 40.1495ZM50.5851 40.1393C50.3263 40.3538 50.1492 40.5054 49.9687 40.6501C47.6667 42.4941 45.3595 44.333 43.0609 46.1804C42.0853 46.9637 41.9082 48.0925 42.6029 48.9779C43.2925 49.8582 44.4571 49.9502 45.431 49.1737C48.535 46.7014 51.6356 44.2257 54.7277 41.7381C55.8736 40.817 55.8668 39.4684 54.7158 38.5422C51.6237 36.0563 48.5231 33.5806 45.4191 31.1083C44.469 30.3523 43.3316 30.4323 42.6335 31.2768C41.915 32.1452 42.0716 33.3064 43.0234 34.0812C43.8458 34.752 44.6784 35.4092 45.5077 36.0716C47.178 37.4099 48.8466 38.7482 50.5851 40.1393Z" fill="#311A8A"/>
<path d="M65.2554 4.97014C65.2554 8.41126 65.2554 11.8524 65.2554 15.2935C43.5155 15.2935 21.7773 15.2935 0.0186994 15.2935C0.0186994 11.8762 0.0135914 8.54407 0.0272129 5.21192C0.0289156 4.89862 0.117455 4.58193 0.199184 4.27544C0.864934 1.7759 3.06821 0.0102161 5.65799 0.00851342C23.6469 -0.00510805 41.6374 0.00170268 59.6263 0.00170268C59.6467 0.00170268 59.6689 0.00170268 59.6893 0.00340537C61.93 0.13962 63.6021 1.18337 64.6288 3.17891C64.9165 3.73569 65.051 4.37079 65.2554 4.97014ZM49.8988 7.64676C48.0327 7.64676 46.1666 7.64335 44.3004 7.64846C43.0626 7.65187 42.1993 8.4317 42.1891 9.54185C42.1789 10.6537 43.0438 11.4676 44.2647 11.4693C47.9765 11.4744 51.6867 11.4744 55.3985 11.4693C56.6262 11.4676 57.486 10.6588 57.4775 9.54525C57.469 8.4334 56.6074 7.65357 55.3696 7.65016C53.546 7.64335 51.7224 7.64676 49.8988 7.64676ZM9.65419 7.64846C8.62237 7.66549 7.76762 8.54237 7.77613 9.5742C7.78464 10.606 8.65301 11.4693 9.68484 11.4693C10.7422 11.4693 11.6208 10.5686 11.5953 9.5112C11.5697 8.47767 10.6877 7.63143 9.65419 7.64846ZM19.2437 9.53333C19.2301 8.50151 18.3583 7.64335 17.3248 7.64846C16.293 7.65357 15.428 8.51853 15.4246 9.55036C15.4212 10.6077 16.3202 11.4914 17.3742 11.4676C18.4077 11.4454 19.2556 10.5652 19.2437 9.53333ZM26.8905 9.55887C26.8922 8.52534 26.0323 7.65697 24.9988 7.64846C23.967 7.63824 23.0901 8.49469 23.073 9.52482C23.0543 10.5822 23.9414 11.4761 24.9971 11.4676C26.0289 11.4591 26.8888 10.5924 26.8905 9.55887Z" fill="#311A8A"/>
</svg>
