<svg width="170" height="170" viewBox="0 0 170 170" fill="none" xmlns="http://www.w3.org/2000/svg">
<g filter="url(#filter0_d_1_79)">
<circle cx="83" cy="81" r="60" fill="white"/>
</g>
<path d="M112.648 74.5H104.377L89.4453 57.8496C89.0872 57.4915 88.6576 57.3125 88.1562 57.3125C87.7266 57.3125 87.3327 57.4915 86.9746 57.8496C86.6165 58.1361 86.4375 58.5299 86.4375 59.0312C86.4375 59.4609 86.5807 59.8548 86.8672 60.2129L99.7578 74.5H66.2422L79.1328 60.2129C79.4193 59.8548 79.5625 59.4609 79.5625 59.0312C79.5625 58.5299 79.3835 58.1361 79.0254 57.8496C78.6673 57.4915 78.2376 57.3125 77.7363 57.3125C77.3066 57.3125 76.9128 57.4915 76.5547 57.8496L61.623 74.5H53.3516C52.9935 74.5 52.6712 74.6432 52.3848 74.9297C52.1699 75.1445 52.0625 75.431 52.0625 75.7891V76.6484C52.0625 77.0065 52.1699 77.3288 52.3848 77.6152C52.6712 77.8301 52.9935 77.9375 53.3516 77.9375H55.0703L58.293 101.033C58.5078 102.251 59.0807 103.289 60.0117 104.148C61.0143 105.008 62.1602 105.438 63.4492 105.438H102.551C103.84 105.438 104.95 105.008 105.881 104.148C106.883 103.289 107.492 102.251 107.707 101.033L110.93 77.9375H112.648C113.007 77.9375 113.293 77.8301 113.508 77.6152C113.794 77.3288 113.938 77.0065 113.938 76.6484V75.7891C113.938 75.431 113.794 75.1445 113.508 74.9297C113.293 74.6432 113.007 74.5 112.648 74.5ZM104.27 100.496C104.198 100.926 103.983 101.284 103.625 101.57C103.339 101.857 102.98 102 102.551 102H63.4492C63.0195 102 62.6257 101.857 62.2676 101.57C61.9811 101.284 61.8021 100.926 61.7305 100.496L58.6152 77.9375H107.385L104.27 100.496ZM84.7188 83.9531V95.9844C84.7188 96.4857 84.5397 96.9154 84.1816 97.2734C83.8952 97.5599 83.5013 97.7031 83 97.7031C82.4987 97.7031 82.069 97.5599 81.7109 97.2734C81.4245 96.9154 81.2812 96.4857 81.2812 95.9844V83.9531C81.2812 83.4518 81.4245 83.0579 81.7109 82.7715C82.069 82.4134 82.4987 82.2344 83 82.2344C83.5013 82.2344 83.8952 82.4134 84.1816 82.7715C84.5397 83.0579 84.7188 83.4518 84.7188 83.9531ZM96.75 83.9531V95.9844C96.75 96.4857 96.571 96.9154 96.2129 97.2734C95.9264 97.5599 95.5326 97.7031 95.0312 97.7031C94.5299 97.7031 94.1003 97.5599 93.7422 97.2734C93.4557 96.9154 93.3125 96.4857 93.3125 95.9844V83.9531C93.3125 83.4518 93.4557 83.0579 93.7422 82.7715C94.1003 82.4134 94.5299 82.2344 95.0312 82.2344C95.5326 82.2344 95.9264 82.4134 96.2129 82.7715C96.571 83.0579 96.75 83.4518 96.75 83.9531ZM72.6875 83.9531V95.9844C72.6875 96.4857 72.5085 96.9154 72.1504 97.2734C71.8639 97.5599 71.4701 97.7031 70.9688 97.7031C70.4674 97.7031 70.0378 97.5599 69.6797 97.2734C69.3932 96.9154 69.25 96.4857 69.25 95.9844V83.9531C69.25 83.4518 69.3932 83.0579 69.6797 82.7715C70.0378 82.4134 70.4674 82.2344 70.9688 82.2344C71.4701 82.2344 71.8639 82.4134 72.1504 82.7715C72.5085 83.0579 72.6875 83.4518 72.6875 83.9531Z" fill="#311A8A"/>
<defs>
<filter id="filter0_d_1_79" x="0" y="0" width="170" height="170" filterUnits="userSpaceOnUse" color-interpolation-filters="sRGB">
<feFlood flood-opacity="0" result="BackgroundImageFix"/>
<feColorMatrix in="SourceAlpha" type="matrix" values="0 0 0 0 0 0 0 0 0 0 0 0 0 0 0 0 0 0 127 0" result="hardAlpha"/>
<feOffset dx="2" dy="4"/>
<feGaussianBlur stdDeviation="12.5"/>
<feComposite in2="hardAlpha" operator="out"/>
<feColorMatrix type="matrix" values="0 0 0 0 0 0 0 0 0 0 0 0 0 0 0 0 0 0 0.12 0"/>
<feBlend mode="normal" in2="BackgroundImageFix" result="effect1_dropShadow_1_79"/>
<feBlend mode="normal" in="SourceGraphic" in2="effect1_dropShadow_1_79" result="shape"/>
</filter>
</defs>
</svg>
