<svg width="50" height="50" viewBox="0 0 50 50" fill="none" xmlns="http://www.w3.org/2000/svg">
<circle cx="25" cy="25" r="24.5" stroke="#301A89"/>
<path d="M33.6484 22.9648C32.8398 23.5977 31.8203 24.3711 28.2344 26.9727C27.5312 27.5 26.2305 28.6602 25 28.6602C23.7344 28.6602 22.4688 27.5 21.7305 26.9727C18.1445 24.3711 17.125 23.5977 16.3164 22.9648C16.1758 22.8594 16 22.9648 16 23.1406V30.3125C16 31.2617 16.7383 32 17.6875 32H32.3125C33.2266 32 34 31.2617 34 30.3125V23.1406C34 22.9648 33.7891 22.8594 33.6484 22.9648ZM25 27.5C25.8086 27.5352 26.9688 26.4805 27.5664 26.0586C32.2422 22.6836 32.5938 22.3672 33.6484 21.5234C33.8594 21.3828 34 21.1367 34 20.8555V20.1875C34 19.2734 33.2266 18.5 32.3125 18.5H17.6875C16.7383 18.5 16 19.2734 16 20.1875V20.8555C16 21.1367 16.1055 21.3828 16.3164 21.5234C17.3711 22.3672 17.7227 22.6836 22.3984 26.0586C22.9961 26.4805 24.1562 27.5352 25 27.5Z" fill="#311A8A"/>
</svg>
