<svg width="59" height="65" viewBox="0 0 59 65" fill="none" xmlns="http://www.w3.org/2000/svg">
<path d="M53.0064 0C53.8154 2.98536 54.0532 6.02669 53.9146 9.10873C53.6984 13.9308 52.5612 18.5456 50.7842 23.0141C48.3814 29.0599 44.9293 34.476 40.8487 39.5131C40.6757 39.7268 40.504 39.9392 40.303 40.1886C40.9645 41.1705 41.5852 42.1767 42.2924 43.1192C43.2871 44.4446 43.4423 45.8743 42.8877 47.3766C42.5303 48.342 42.0991 49.2935 41.5941 50.1889C39.8922 53.2074 38.1419 56.1978 36.4095 59.1985C36.3471 59.3066 36.2721 59.4083 36.164 59.5711C34.3883 56.0923 32.6367 52.6566 30.861 49.1764C29.8854 50.1406 28.9416 51.045 28.036 51.9863C27.7281 52.3068 27.5132 52.331 27.1277 52.1033C25.0366 50.8669 22.9315 49.6509 20.8123 48.4629C20.3837 48.2224 20.2717 48.0037 20.4155 47.5279C20.7818 46.3183 21.0909 45.0921 21.4598 43.7374C17.5458 43.9384 13.721 44.1355 9.82486 44.3352C9.90372 44.1381 9.93934 44.0007 10.008 43.8824C11.8041 40.7711 13.5747 37.6458 15.4203 34.5638C15.9788 33.6302 16.6822 32.7627 17.4314 31.9702C18.3154 31.034 19.4538 30.6486 20.7729 30.8C21.8223 30.9196 22.8857 30.917 23.9351 31.0315C24.3866 31.0798 24.5558 30.9424 24.7072 30.5354C25.9384 27.2244 27.3961 24.0152 29.1197 20.9306C32.2208 15.3796 36.038 10.4074 40.9861 6.36377C44.4205 3.55649 48.1677 1.30888 52.4823 0.110663C52.5358 0.0953993 52.5777 0.0381597 52.6248 0.00127199C52.752 0 52.8792 0 53.0064 0ZM41.3575 16.2306C39.1748 16.2344 37.45 17.9669 37.4665 20.1394C37.483 22.2916 39.1989 23.9987 41.3461 23.9974C43.5123 23.9961 45.2651 22.2395 45.2485 20.086C45.2333 17.9516 43.4932 16.2268 41.3575 16.2306Z" fill="#311A8A"/>
<path d="M4.12255 27.76C4.12255 28.092 4.12255 28.3209 4.12255 28.5511C4.12255 38.2195 4.12255 47.8879 4.12255 57.5551C4.12255 59.7276 5.2737 60.8851 7.44626 60.8915C9.09603 60.8966 10.7471 60.8724 12.3968 60.9042C12.884 60.9131 13.1511 60.7656 13.3941 60.3382C15.0324 57.4533 16.7 54.585 18.3599 51.7115C18.4859 51.494 18.6156 51.2778 18.7682 51.0183C19.2821 51.3147 19.7655 51.5933 20.287 51.8947C18.5609 54.8877 16.8653 57.8273 15.0973 60.8902C15.6608 60.8902 16.1225 60.9386 16.5639 60.8673C16.756 60.8368 16.9557 60.5862 17.0701 60.3878C18.4553 58.0155 19.824 55.6331 21.199 53.2545C21.3135 53.056 21.4407 52.8652 21.5793 52.6426C22.0843 52.9327 22.5575 53.2049 23.0841 53.5076C21.676 55.9498 20.2883 58.3577 18.8306 60.8851C19.4093 60.8851 19.8889 60.9284 20.3531 60.8622C20.5223 60.8381 20.6902 60.5786 20.7996 60.3916C21.877 58.5485 22.9416 56.699 24.0101 54.8521C24.1144 54.6715 24.2276 54.4959 24.3726 54.2568C24.884 54.5494 25.3673 54.8279 25.8825 55.123C24.7797 57.0386 23.7074 58.9008 22.56 60.894C22.9009 60.894 23.1197 60.894 23.3398 60.894C32.5846 60.894 41.8294 60.8737 51.0743 60.9106C53.1171 60.9182 54.4603 59.5623 54.4501 57.5233C54.398 47.8345 54.4272 38.1445 54.426 28.4557C54.426 28.2484 54.4094 28.0423 54.398 27.7829C53.271 27.7829 52.1796 27.7829 51.0374 27.7829C51.8502 25.7744 52.7062 23.8575 53.402 21.8834C54.1029 19.8965 54.6447 17.8524 55.2693 15.7931C57.0132 16.9124 58.0918 18.5202 58.4518 20.6025C58.5345 21.0795 58.5587 21.5705 58.5587 22.0551C58.5637 33.8808 58.5599 45.7077 58.565 57.5334C58.5663 60.3852 57.4368 62.61 54.9589 64.0817C53.8434 64.7444 52.6108 65.0013 51.3159 65C47.804 64.9949 44.292 64.9988 40.78 64.9988C29.6094 64.9988 18.4401 65.0026 7.26945 64.9962C3.66463 64.9949 0.820457 62.7092 0.139942 59.2684C0.0305512 58.7126 0.00638335 58.1326 0.00511136 57.564C2.33969e-05 45.7599 -0.00252058 33.9558 0.00256738 22.1505C0.00383937 18.2798 2.29088 15.4331 5.91096 14.7895C6.38669 14.7055 6.87895 14.6979 7.36485 14.6979C14.8747 14.6928 22.3858 14.6941 29.8956 14.6966C30.0762 14.6966 30.2569 14.717 30.5278 14.7335C30.1602 15.2919 29.8358 15.7778 29.5178 16.2688C27.2779 19.7172 25.4093 23.3601 23.8422 27.157C23.6476 27.6289 23.4161 27.774 22.9149 27.7727C16.9493 27.7549 10.9837 27.7612 5.01803 27.7612C4.74709 27.76 4.47616 27.76 4.12255 27.76ZM9.00699 23.1159C10.0691 23.1057 10.9455 22.2255 10.9455 21.171C10.9455 20.1255 10.0513 19.2287 9.0019 19.2198C7.92325 19.2109 7.02777 20.1204 7.04558 21.2079C7.06212 22.2751 7.93979 23.1274 9.00699 23.1159ZM16.1632 23.1159C17.2419 23.1223 18.1043 22.2828 18.1195 21.2105C18.1348 20.1166 17.2508 19.2147 16.1708 19.2224C15.1125 19.2313 14.2463 20.1077 14.2463 21.171C14.2438 22.2472 15.0947 23.1083 16.1632 23.1159Z" fill="#311A8A"/>
</svg>
