<svg width="50" height="50" viewBox="0 0 50 50" fill="none" xmlns="http://www.w3.org/2000/svg">
<circle cx="25" cy="25" r="24.5" stroke="#301A89"/>
<path d="M24.7188 35.1094C25.0703 35.6562 25.8906 35.6562 26.2422 35.1094C31.9453 26.9062 33 26.0469 33 23C33 18.8594 29.6406 15.5 25.5 15.5C21.3203 15.5 18 18.8594 18 23C18 26.0469 19.0156 26.9062 24.7188 35.1094ZM25.5 26.125C23.7422 26.125 22.375 24.7578 22.375 23C22.375 21.2812 23.7422 19.875 25.5 19.875C27.2188 19.875 28.625 21.2812 28.625 23C28.625 24.7578 27.2188 26.125 25.5 26.125Z" fill="#311A8A"/>
</svg>
