<svg width="170" height="170" viewBox="0 0 170 170" fill="none" xmlns="http://www.w3.org/2000/svg">
<g filter="url(#filter0_d_1_81)">
<circle cx="83" cy="81" r="60" fill="white"/>
</g>
<path d="M111 72.7812C112.934 72.7812 114.545 72.1367 115.834 70.8477C117.195 69.487 117.875 67.8398 117.875 65.9062C117.875 63.9727 117.195 62.3613 115.834 61.0723C114.545 59.7116 112.934 59.0312 111 59.0312C109.424 59.0312 108.028 59.5326 106.811 60.5352C105.593 61.4661 104.77 62.6836 104.34 64.1875H92.0938V60.75C92.0938 59.819 91.7357 59.0312 91.0195 58.3867C90.375 57.6706 89.5872 57.3125 88.6562 57.3125H78.3438C77.4128 57.3125 76.5892 57.6706 75.873 58.3867C75.2285 59.0312 74.9062 59.819 74.9062 60.75V64.1875H62.6602C62.2305 62.6836 61.4069 61.4661 60.1895 60.5352C58.972 59.5326 57.5755 59.0312 56 59.0312C54.0664 59.0312 52.4193 59.7116 51.0586 61.0723C49.7695 62.3613 49.125 63.9727 49.125 65.9062C49.125 67.8398 49.7695 69.487 51.0586 70.8477C52.4193 72.1367 54.0664 72.7812 56 72.7812C57.5755 72.7812 58.972 72.3158 60.1895 71.3848C61.4069 70.3822 62.2305 69.1289 62.6602 67.625H74.7988C70.4303 69.3438 66.8854 72.0651 64.1641 75.7891C61.4427 79.4414 59.903 83.5951 59.5449 88.25H56C55.069 88.25 54.2454 88.6081 53.5293 89.3242C52.8848 89.9688 52.5625 90.7565 52.5625 91.6875V102C52.5625 102.931 52.8848 103.719 53.5293 104.363C54.2454 105.079 55.069 105.438 56 105.438H66.3125C67.2435 105.438 68.0312 105.079 68.6758 104.363C69.3919 103.719 69.75 102.931 69.75 102V91.6875C69.75 90.7565 69.3919 89.9688 68.6758 89.3242C68.0312 88.6081 67.2435 88.25 66.3125 88.25H62.9824C63.3405 84.526 64.5579 81.1602 66.6348 78.1523C68.7832 75.0729 71.5404 72.7812 74.9062 71.2773C74.9779 72.1367 75.3359 72.8887 75.9805 73.5332C76.625 74.1777 77.4128 74.5 78.3438 74.5H88.6562C89.5872 74.5 90.375 74.1777 91.0195 73.5332C91.6641 72.8887 92.0221 72.1367 92.0938 71.2773C95.4596 72.7812 98.181 75.0729 100.258 78.1523C102.406 81.1602 103.66 84.526 104.018 88.25H100.688C99.7565 88.25 98.9329 88.6081 98.2168 89.3242C97.5723 89.9688 97.25 90.7565 97.25 91.6875V102C97.25 102.931 97.5723 103.719 98.2168 104.363C98.9329 105.079 99.7565 105.438 100.688 105.438H111C111.931 105.438 112.719 105.079 113.363 104.363C114.079 103.719 114.438 102.931 114.438 102V91.6875C114.438 90.7565 114.079 89.9688 113.363 89.3242C112.719 88.6081 111.931 88.25 111 88.25H107.455C107.097 83.5951 105.557 79.4414 102.836 75.7891C100.115 72.0651 96.5697 69.3438 92.2012 67.625H104.34C104.77 69.1289 105.593 70.3822 106.811 71.3848C108.028 72.3158 109.424 72.7812 111 72.7812ZM66.3125 102H56V91.6875H66.3125V102ZM56 69.3438C55.069 69.3438 54.2454 69.0215 53.5293 68.377C52.8848 67.6608 52.5625 66.8372 52.5625 65.9062C52.5625 64.9753 52.8848 64.1875 53.5293 63.543C54.2454 62.8268 55.069 62.4688 56 62.4688C56.931 62.4688 57.7188 62.8268 58.3633 63.543C59.0794 64.1875 59.4375 64.9753 59.4375 65.9062C59.4375 66.8372 59.0794 67.6608 58.3633 68.377C57.7188 69.0215 56.931 69.3438 56 69.3438ZM88.6562 71.0625H78.3438V60.75H88.6562V71.0625ZM111 102H100.688V91.6875H111V102ZM111 62.4688C111.931 62.4688 112.719 62.8268 113.363 63.543C114.079 64.1875 114.438 64.9753 114.438 65.9062C114.438 66.8372 114.079 67.6608 113.363 68.377C112.719 69.0215 111.931 69.3438 111 69.3438C110.069 69.3438 109.245 69.0215 108.529 68.377C107.885 67.6608 107.562 66.8372 107.562 65.9062C107.562 64.9753 107.885 64.1875 108.529 63.543C109.245 62.8268 110.069 62.4688 111 62.4688Z" fill="#311A8A"/>
<defs>
<filter id="filter0_d_1_81" x="0" y="0" width="170" height="170" filterUnits="userSpaceOnUse" color-interpolation-filters="sRGB">
<feFlood flood-opacity="0" result="BackgroundImageFix"/>
<feColorMatrix in="SourceAlpha" type="matrix" values="0 0 0 0 0 0 0 0 0 0 0 0 0 0 0 0 0 0 127 0" result="hardAlpha"/>
<feOffset dx="2" dy="4"/>
<feGaussianBlur stdDeviation="12.5"/>
<feComposite in2="hardAlpha" operator="out"/>
<feColorMatrix type="matrix" values="0 0 0 0 0 0 0 0 0 0 0 0 0 0 0 0 0 0 0.12 0"/>
<feBlend mode="normal" in2="BackgroundImageFix" result="effect1_dropShadow_1_81"/>
<feBlend mode="normal" in="SourceGraphic" in2="effect1_dropShadow_1_81" result="shape"/>
</filter>
</defs>
</svg>
