<svg width="170" height="170" viewBox="0 0 170 170" fill="none" xmlns="http://www.w3.org/2000/svg">
<g filter="url(#filter0_d_1_84)">
<circle cx="83" cy="81" r="60" fill="white"/>
</g>
<path d="M86.9375 98.5625C86.9375 99.4935 86.5794 100.317 85.8633 101.033C85.2188 101.678 84.431 102 83.5 102C82.569 102 81.7454 101.678 81.0293 101.033C80.3848 100.317 80.0625 99.4935 80.0625 98.5625C80.0625 97.6315 80.3848 96.8438 81.0293 96.1992C81.7454 95.4831 82.569 95.125 83.5 95.125C84.431 95.125 85.2188 95.4831 85.8633 96.1992C86.5794 96.8438 86.9375 97.6315 86.9375 98.5625ZM100.688 59.0312V103.719C100.688 105.151 100.186 106.368 99.1836 107.371C98.181 108.374 96.9635 108.875 95.5312 108.875H71.4688C70.0365 108.875 68.819 108.374 67.8164 107.371C66.8138 106.368 66.3125 105.151 66.3125 103.719V59.0312C66.3125 57.599 66.8138 56.3815 67.8164 55.3789C68.819 54.3763 70.0365 53.875 71.4688 53.875H95.5312C96.9635 53.875 98.181 54.3763 99.1836 55.3789C100.186 56.3815 100.688 57.599 100.688 59.0312ZM97.25 59.0312C97.25 58.5299 97.071 58.1361 96.7129 57.8496C96.4264 57.4915 96.0326 57.3125 95.5312 57.3125H71.4688C70.9674 57.3125 70.5378 57.4915 70.1797 57.8496C69.8932 58.1361 69.75 58.5299 69.75 59.0312V103.719C69.75 104.22 69.8932 104.614 70.1797 104.9C70.5378 105.258 70.9674 105.438 71.4688 105.438H95.5312C96.0326 105.438 96.4264 105.258 96.7129 104.9C97.071 104.614 97.25 104.22 97.25 103.719V59.0312Z" fill="#311A8A"/>
<path d="M81.6387 86.0918L79.6133 85.5273C79.5026 85.4831 79.4141 85.4167 79.3477 85.3281C79.3034 85.2396 79.3034 85.14 79.3477 85.0293L83.8633 69.4238C83.9076 69.3132 83.974 69.2357 84.0625 69.1914C84.151 69.125 84.2507 69.1029 84.3613 69.125L86.3867 69.7227C86.4974 69.7669 86.5749 69.8333 86.6191 69.9219C86.6855 70.0104 86.6966 70.11 86.6523 70.2207L82.1367 85.8262C82.0924 85.9368 82.026 86.0143 81.9375 86.0586C81.849 86.125 81.7493 86.1361 81.6387 86.0918ZM77.8535 82.373L79.2812 80.8457C79.3698 80.7572 79.403 80.6576 79.3809 80.5469C79.3809 80.4362 79.3477 80.3477 79.2812 80.2812L76.2598 77.625L79.2812 74.9688C79.3477 74.9023 79.3809 74.8138 79.3809 74.7031C79.403 74.5924 79.3698 74.4928 79.2812 74.4043L77.8535 72.877C77.7871 72.7884 77.6986 72.7441 77.5879 72.7441C77.4772 72.7441 77.3776 72.7773 77.2891 72.8438L72.5078 77.3262C72.4193 77.4147 72.375 77.5143 72.375 77.625C72.375 77.7357 72.4193 77.8353 72.5078 77.9238L77.2891 82.4062C77.3776 82.4727 77.4772 82.5059 77.5879 82.5059C77.6986 82.5059 77.7871 82.4616 77.8535 82.373ZM88.7109 82.4062L93.4922 77.9238C93.5807 77.8353 93.625 77.7357 93.625 77.625C93.625 77.5143 93.5807 77.4147 93.4922 77.3262L88.7109 72.8438C88.6224 72.7773 88.5228 72.7441 88.4121 72.7441C88.3236 72.7441 88.235 72.7884 88.1465 72.877L86.7188 74.4043C86.6302 74.4928 86.5859 74.5924 86.5859 74.7031C86.6081 74.8138 86.6523 74.9023 86.7188 74.9688L89.7402 77.625L86.7188 80.2812C86.6523 80.3477 86.6081 80.4362 86.5859 80.5469C86.5859 80.6576 86.6302 80.7572 86.7188 80.8457L88.1465 82.373C88.2129 82.4616 88.3014 82.5059 88.4121 82.5059C88.5228 82.5059 88.6224 82.4727 88.7109 82.4062Z" fill="#311A8A"/>
<defs>
<filter id="filter0_d_1_84" x="0" y="0" width="170" height="170" filterUnits="userSpaceOnUse" color-interpolation-filters="sRGB">
<feFlood flood-opacity="0" result="BackgroundImageFix"/>
<feColorMatrix in="SourceAlpha" type="matrix" values="0 0 0 0 0 0 0 0 0 0 0 0 0 0 0 0 0 0 127 0" result="hardAlpha"/>
<feOffset dx="2" dy="4"/>
<feGaussianBlur stdDeviation="12.5"/>
<feComposite in2="hardAlpha" operator="out"/>
<feColorMatrix type="matrix" values="0 0 0 0 0 0 0 0 0 0 0 0 0 0 0 0 0 0 0.12 0"/>
<feBlend mode="normal" in2="BackgroundImageFix" result="effect1_dropShadow_1_84"/>
<feBlend mode="normal" in="SourceGraphic" in2="effect1_dropShadow_1_84" result="shape"/>
</filter>
</defs>
</svg>
