<svg width="70" height="70" viewBox="0 0 70 70" fill="none" xmlns="http://www.w3.org/2000/svg">
<path d="M9.98048 0C25.7031 0 41.4258 0 57.1484 0C57.1357 0.317188 57.1102 0.634375 57.1102 0.953386C57.1083 21.1841 57.1083 41.4167 57.1083 61.6474C57.1083 61.9208 57.1685 62.2143 57.0919 62.4641C56.8659 63.1896 56.7164 63.988 56.2971 64.5914C55.4714 65.7818 53.9328 66.1609 52.5675 65.6961C51.1456 65.213 50.2542 63.9716 50.2359 62.3419C50.2104 60.1326 50.2305 57.9214 50.2268 55.712C50.2268 55.4695 50.2068 55.2253 50.1922 54.9063C34.907 54.9063 19.6784 54.9063 4.38412 54.9063C4.38412 54.5599 4.38412 54.2901 4.38412 54.0221C4.38412 38.3469 4.38412 22.6734 4.38412 6.99818C4.38412 6.74844 4.37683 6.49688 4.39324 6.24714C4.54272 3.92474 5.55443 2.09271 7.58334 0.926042C8.31798 0.504948 9.17839 0.302604 9.98048 0ZM40.4341 31.5729C40.4341 30.1656 40.4341 28.8367 40.4341 27.4586C39.4807 27.4586 38.5766 27.4586 37.6779 27.4586C37.543 27.1177 37.4664 26.7969 37.2987 26.5344C37.0399 26.1297 37.1109 25.8563 37.4682 25.5555C38.0242 25.0888 38.5401 24.5766 39.0305 24.1245C37.9878 23.0818 37.0435 22.1357 35.988 21.0802C35.432 21.7219 34.8232 22.4255 34.2399 23.1C33.8516 22.9286 33.6128 22.7701 33.3521 22.7227C32.7578 22.6115 32.6211 22.2669 32.6594 21.7109C32.705 21.0383 32.6703 20.3583 32.6703 19.6911C31.2521 19.6911 29.925 19.6911 28.5578 19.6911C28.5578 20.249 28.5578 20.7484 28.5578 21.2461C28.5578 22.4255 28.5469 22.4018 27.4823 22.8922C27.1323 23.0544 26.9464 22.9669 26.7276 22.7208C26.2154 22.1503 25.6885 21.5924 25.2055 21.0711C24.15 22.1229 23.2021 23.0672 22.1995 24.068C22.7099 24.5638 23.2203 25.1198 23.7927 25.5974C24.4581 26.1534 23.7544 26.5617 23.6997 27.0375C23.6505 27.4732 23.3352 27.475 22.9961 27.4695C22.2542 27.4568 21.5104 27.4659 20.7721 27.4659C20.7721 28.8841 20.7721 30.1966 20.7721 31.5802C21.556 31.5802 22.3034 31.6221 23.0453 31.5693C23.9057 31.5091 23.6779 32.3021 23.9841 32.6703C24.2466 32.9857 24.0315 33.1971 23.8018 33.4122C23.244 33.9336 22.6953 34.4659 22.2596 34.8815C23.2914 35.9297 24.2266 36.8776 25.2292 37.8948C25.5427 37.5539 25.8872 37.1583 26.2518 36.7846C27.0484 35.9716 27.0448 35.9953 28.1076 36.3854C28.4794 36.5221 28.5742 36.719 28.5615 37.0854C28.5359 37.8292 28.5542 38.5747 28.5542 39.344C29.9542 39.344 31.2831 39.344 32.6576 39.344C32.6576 38.3979 32.6576 37.4919 32.6576 36.5805C32.9875 36.4474 33.3083 36.3727 33.5672 36.205C34.0047 35.9206 34.2891 36.0591 34.5971 36.4109C35.0675 36.9523 35.576 37.4609 36.0281 37.9385C37.0745 36.8904 38.006 35.9589 39.0068 34.9563C38.3523 34.3656 37.6633 33.744 37.0107 33.157C37.275 32.5318 37.4737 32.0596 37.6797 31.5729C38.6039 31.5729 39.4898 31.5729 40.4341 31.5729ZM50.3253 43.9542C37.1602 43.9542 24.037 43.9542 10.881 43.9542C10.881 45.3214 10.881 46.6484 10.881 47.981C24.057 47.981 37.182 47.981 50.3253 47.981C50.3253 46.6175 50.3253 45.3068 50.3253 43.9542ZM10.8701 15.0409C24.0625 15.0409 37.1747 15.0409 50.3034 15.0409C50.3034 13.6737 50.3034 12.3503 50.3034 11.0159C37.131 11.0159 24.0206 11.0159 10.8701 11.0159C10.8701 12.3703 10.8701 13.6792 10.8701 15.0409ZM16.2714 39.2164C16.2714 37.831 16.2714 36.5039 16.2714 35.1951C14.432 35.1951 12.6492 35.1951 10.8737 35.1951C10.8737 36.5641 10.8737 37.8747 10.8737 39.2164C12.6839 39.2164 14.4521 39.2164 16.2714 39.2164ZM50.3326 39.2201C50.3326 37.8365 50.3326 36.524 50.3326 35.1732C48.5133 35.1732 46.7287 35.1732 44.9185 35.1732C44.9185 36.5385 44.9185 37.8656 44.9185 39.2201C46.7323 39.2201 48.4987 39.2201 50.3326 39.2201ZM16.2878 23.8565C16.2878 22.4656 16.2878 21.1586 16.2878 19.8115C14.4667 19.8115 12.6875 19.8115 10.8846 19.8115C10.8846 21.1823 10.8846 22.5057 10.8846 23.8565C12.7003 23.8565 14.463 23.8565 16.2878 23.8565ZM50.3016 23.8565C50.3016 22.4492 50.3016 21.124 50.3016 19.8115C48.4732 19.8115 46.7104 19.8115 44.924 19.8115C44.924 21.1823 44.924 22.5057 44.924 23.8565C46.7378 23.8565 48.5005 23.8565 50.3016 23.8565Z" fill="#311A8A"/>
<path d="M0 59.0624C0.226042 59.0515 0.453906 59.0296 0.679948 59.0296C15.5549 59.0278 30.4318 59.0278 45.3068 59.0278C45.5328 59.0278 45.7607 59.0278 46.107 59.0278C46.107 59.3213 46.0997 59.582 46.1089 59.8427C46.1526 61.1843 46.0651 62.5479 46.2747 63.8622C46.7578 66.901 49.2151 69.2835 52.2521 69.8614C52.4289 69.8942 52.6003 69.9526 52.7734 69.9981C37.3698 69.9981 21.9661 69.9981 6.5625 69.9981C6.43854 69.9544 6.31823 69.8924 6.19063 69.8687C4.00312 69.4367 2.26406 68.3046 1.15026 66.3796C0.628906 65.4791 0.375521 64.4236 0 63.4374C0 61.9791 0 60.5208 0 59.0624Z" fill="#311A8A"/>
<path d="M70 12.8516C67.1143 12.8516 64.2268 12.8516 61.25 12.8516C61.25 8.575 61.25 4.2875 61.25 0C62.2982 0 63.3464 0 64.3945 0C64.5203 0.0419271 64.6443 0.0966146 64.7737 0.125781C67.2036 0.658073 68.826 2.11094 69.6682 4.4388C69.8049 4.81797 69.8888 5.21536 69.9982 5.60547C70 8.02083 70 10.4362 70 12.8516Z" fill="#311A8A"/>
<path d="M30.5849 32.7049C28.8112 32.694 27.3729 31.243 27.393 29.4857C27.413 27.7211 28.8768 26.2773 30.6287 26.2937C32.406 26.3102 33.8115 27.743 33.8024 29.5294C33.7951 31.3177 32.3768 32.7159 30.5849 32.7049Z" fill="#311A8A"/>
</svg>
