<svg width="71" height="57" viewBox="0 0 71 57" fill="none" xmlns="http://www.w3.org/2000/svg">
<path d="M53.5469 21.5H37.2188V27.5156C37.2188 29.6641 36.4668 31.4902 34.9629 32.9941C33.459 34.498 31.6328 35.25 29.4844 35.25C27.3359 35.25 25.5098 34.498 24.0059 32.9941C22.502 31.4902 21.75 29.6641 21.75 27.5156V14.4102L14.7676 18.5996C13.765 19.2441 12.9414 20.1035 12.2969 21.1777C11.724 22.1803 11.4375 23.2904 11.4375 24.5078V29.5566L2.84375 34.6055C2.05599 35.0352 1.51888 35.7155 1.23242 36.6465C1.01758 37.5775 1.125 38.4368 1.55469 39.2246L10.1484 54.1562C10.6497 54.944 11.3659 55.4453 12.2969 55.6602C13.2279 55.9466 14.0872 55.875 14.875 55.4453L25.9395 49H40.6562C42.5182 49 44.1296 48.3197 45.4902 46.959C46.8509 45.5983 47.5312 43.987 47.5312 42.125H49.25C50.181 42.125 50.9688 41.8027 51.6133 41.1582C52.3294 40.4421 52.6875 39.6185 52.6875 38.6875V31.8125H53.5469C54.263 31.8125 54.8717 31.5618 55.373 31.0605C55.8743 30.5592 56.125 29.9505 56.125 29.2344V24.0781C56.125 23.362 55.8743 22.7533 55.373 22.252C54.8717 21.7507 54.263 21.5 53.5469 21.5ZM69.4453 17.5254L60.8516 2.59375C60.3503 1.80599 59.6341 1.30469 58.7031 1.08984C57.7721 0.803385 56.9128 0.875 56.125 1.30469L45.0605 7.75H33.9961C32.707 7.75 31.4896 8.10807 30.3438 8.82422L26.7988 11.0801C25.7246 11.7246 25.1875 12.6914 25.1875 13.9805V27.5156C25.1875 28.7331 25.5814 29.7715 26.3691 30.6309C27.2285 31.4186 28.2669 31.8125 29.4844 31.8125C30.7018 31.8125 31.7044 31.4186 32.4922 30.6309C33.3516 29.7715 33.7812 28.7331 33.7812 27.5156V18.0625H53.5469C55.194 18.0625 56.5905 18.6712 57.7363 19.8887C58.9538 21.0345 59.5625 22.431 59.5625 24.0781V27.0859L68.1562 22.1445C68.944 21.7148 69.4453 21.0345 69.6602 20.1035C69.9466 19.1725 69.875 18.3132 69.4453 17.5254Z" fill="#311A8A"/>
</svg>
