<svg width="170" height="170" viewBox="0 0 170 170" fill="none" xmlns="http://www.w3.org/2000/svg">
<g filter="url(#filter0_d_1_80)">
<circle cx="83" cy="81" r="60" fill="white"/>
</g>
<path d="M108.781 53.875H57.2188C55.7865 53.875 54.569 54.3763 53.5664 55.3789C52.5638 56.3815 52.0625 57.599 52.0625 59.0312V89.9688C52.0625 91.401 52.5638 92.6185 53.5664 93.6211C54.569 94.6237 55.7865 95.125 57.2188 95.125H77.8438L75.2656 105.438H67.5312C67.0299 105.438 66.6003 105.581 66.2422 105.867C65.9557 106.225 65.8125 106.655 65.8125 107.156C65.8125 107.658 65.9557 108.051 66.2422 108.338C66.6003 108.696 67.0299 108.875 67.5312 108.875H98.4688C98.9701 108.875 99.3639 108.696 99.6504 108.338C100.008 108.051 100.188 107.658 100.188 107.156C100.188 106.655 100.008 106.225 99.6504 105.867C99.3639 105.581 98.9701 105.438 98.4688 105.438H90.7344L88.1562 95.125H108.781C110.214 95.125 111.431 94.6237 112.434 93.6211C113.436 92.6185 113.938 91.401 113.938 89.9688V59.0312C113.938 57.599 113.436 56.3815 112.434 55.3789C111.431 54.3763 110.214 53.875 108.781 53.875ZM78.8105 105.438L80.5293 98.5625H85.4707L87.1895 105.438H78.8105ZM110.5 89.9688C110.5 90.4701 110.321 90.8997 109.963 91.2578C109.676 91.5443 109.283 91.6875 108.781 91.6875H57.2188C56.7174 91.6875 56.2878 91.5443 55.9297 91.2578C55.6432 90.8997 55.5 90.4701 55.5 89.9688V59.0312C55.5 58.5299 55.6432 58.1361 55.9297 57.8496C56.2878 57.4915 56.7174 57.3125 57.2188 57.3125H108.781C109.283 57.3125 109.676 57.4915 109.963 57.8496C110.321 58.1361 110.5 58.5299 110.5 59.0312V89.9688Z" fill="#311A8A"/>
<path d="M65.9922 80.21C64.4322 80.21 63.2172 79.785 62.3472 78.935C61.4872 78.085 61.0572 76.88 61.0572 75.32V69.5H64.0272V75.23C64.0272 76.91 64.6922 77.75 66.0222 77.75C67.3422 77.75 68.0022 76.91 68.0022 75.23V69.5H70.9272V75.32C70.9272 76.88 70.4922 78.085 69.6222 78.935C68.7622 79.785 67.5522 80.21 65.9922 80.21ZM72.9392 69.5H75.9092V80H72.9392V69.5ZM81.3672 67.37H83.9022L78.9522 81.5H76.4172L81.3672 67.37ZM89.0928 80.21C87.5328 80.21 86.3178 79.785 85.4478 78.935C84.5878 78.085 84.1578 76.88 84.1578 75.32V69.5H87.1278V75.23C87.1278 76.91 87.7928 77.75 89.1228 77.75C90.4428 77.75 91.1028 76.91 91.1028 75.23V69.5H94.0278V75.32C94.0278 76.88 93.5928 78.085 92.7228 78.935C91.8628 79.785 90.6528 80.21 89.0928 80.21ZM102.523 80L100.348 76.745L98.2033 80H94.8133L98.6383 74.69L94.9783 69.5H98.3233L100.423 72.53L102.493 69.5H105.703L102.043 74.57L105.943 80H102.523Z" fill="#311A8A"/>
<defs>
<filter id="filter0_d_1_80" x="0" y="0" width="170" height="170" filterUnits="userSpaceOnUse" color-interpolation-filters="sRGB">
<feFlood flood-opacity="0" result="BackgroundImageFix"/>
<feColorMatrix in="SourceAlpha" type="matrix" values="0 0 0 0 0 0 0 0 0 0 0 0 0 0 0 0 0 0 127 0" result="hardAlpha"/>
<feOffset dx="2" dy="4"/>
<feGaussianBlur stdDeviation="12.5"/>
<feComposite in2="hardAlpha" operator="out"/>
<feColorMatrix type="matrix" values="0 0 0 0 0 0 0 0 0 0 0 0 0 0 0 0 0 0 0.12 0"/>
<feBlend mode="normal" in2="BackgroundImageFix" result="effect1_dropShadow_1_80"/>
<feBlend mode="normal" in="SourceGraphic" in2="effect1_dropShadow_1_80" result="shape"/>
</filter>
</defs>
</svg>
