<svg width="61" height="60" viewBox="0 0 61 60" fill="none" xmlns="http://www.w3.org/2000/svg">
<path d="M60.1181 23.4239C60.1181 23.5169 60.1181 23.7602 60.1181 24.0035C60.1181 33.7098 60.1199 43.4179 60.1181 53.1242C60.1181 57.2768 57.3932 59.9982 53.2387 59.9982C37.7892 60 22.3397 59.9982 6.88834 59.9982C2.7303 59.9982 0.00180227 57.2768 0.00180227 53.1295C1.30936e-05 43.4233 0.00180227 33.7152 0.00180227 24.0089C0.00180227 23.7656 0.00180227 23.5223 0.00180227 23.4382C1.79813 23.4829 3.55153 23.5634 5.30492 23.5634C22.0069 23.5724 38.7088 23.5724 55.4108 23.5634C56.9638 23.5652 58.5186 23.4739 60.1181 23.4239ZM30.1262 27.8574C23.7531 27.8574 17.3801 27.8556 11.007 27.8592C9.44507 27.8592 8.59342 28.7019 8.58985 30.2496C8.58627 32.928 8.58627 35.6063 8.58985 38.2847C8.59163 39.8717 9.4397 40.7144 11.0374 40.7144C23.7173 40.7162 36.3972 40.7162 49.0753 40.7144C50.682 40.7144 51.5265 39.8789 51.5283 38.2901C51.5319 35.6564 51.5301 33.0228 51.5283 30.3891C51.5265 28.6679 50.7124 27.8592 48.9787 27.8592C42.6951 27.8574 36.4115 27.8574 30.1262 27.8574ZM19.3911 42.8579C16.5731 42.8579 13.7552 42.8543 10.939 42.8597C9.46654 42.8632 8.59521 43.7238 8.59164 45.182C8.58448 47.9051 8.58627 50.6283 8.59164 53.3496C8.59342 54.8453 9.46475 55.7113 10.9712 55.7131C16.5392 55.7167 22.1071 55.7167 27.675 55.7131C29.1904 55.7113 30.0546 54.8561 30.0582 53.355C30.0635 50.6551 30.0635 47.9534 30.0582 45.2536C30.0564 43.7149 29.194 42.8615 27.6428 42.8597C24.8928 42.8561 22.1411 42.8579 19.3911 42.8579ZM41.9347 42.8579C39.4746 42.8579 37.0145 42.8543 34.5562 42.8597C33.0837 42.8632 32.2123 43.7238 32.2088 45.182C32.2016 47.9051 32.2034 50.6283 32.2088 53.3496C32.2105 54.8471 33.0819 55.7113 34.5866 55.7131C39.4388 55.7167 44.2911 55.7167 49.1433 55.7131C50.6587 55.7113 51.5247 54.8561 51.5265 53.355C51.5319 50.6551 51.5319 47.9534 51.5265 45.2536C51.5247 43.7131 50.6623 42.8597 49.1111 42.8579C46.7208 42.8543 44.3286 42.8579 41.9347 42.8579Z" fill="#311A8A"/>
<path d="M29.9837 19.2859C20.8624 19.2859 11.7412 19.2859 2.62001 19.2859C0.787891 19.2859 0.00244314 18.5076 0.00244314 16.6916C0.00244314 13.3887 0.000653963 10.0877 0.00244314 6.78489C0.00602149 2.75567 2.74525 0.00391688 6.76374 0.00212771C22.3009 0.000338534 37.8381 0.000338534 53.3753 0.00212771C57.358 0.00212771 60.1116 2.75746 60.1169 6.73658C60.1223 10.1056 60.1205 13.4746 60.1169 16.8436C60.1152 18.4414 59.276 19.2841 57.6819 19.2841C48.4479 19.2876 39.2158 19.2859 29.9837 19.2859ZM10.7661 12.8556C11.9309 12.8395 12.8881 11.8661 12.8809 10.7014C12.8738 9.53843 11.904 8.57586 10.7393 8.57407C9.54054 8.57228 8.56902 9.56169 8.59227 10.7586C8.61553 11.9198 9.60137 12.8717 10.7661 12.8556ZM21.469 10.7229C21.4725 9.5599 20.5118 8.58659 19.347 8.57586C18.1733 8.56333 17.2018 9.50623 17.1803 10.6746C17.1588 11.8661 18.1429 12.8627 19.3345 12.8574C20.4992 12.8502 21.4654 11.8858 21.469 10.7229ZM27.9261 8.57407C26.7524 8.56691 25.7845 9.51159 25.7666 10.6817C25.7505 11.8447 26.7005 12.8305 27.8617 12.8556C29.0551 12.8824 30.057 11.9037 30.0552 10.7139C30.057 9.55096 29.0909 8.58122 27.9261 8.57407Z" fill="#311A8A"/>
<path d="M12.9143 36.3829C12.9143 34.9587 12.9143 33.5846 12.9143 32.1765C24.34 32.1765 35.7334 32.1765 47.1806 32.1765C47.1806 33.556 47.1806 34.9462 47.1806 36.3829C35.7853 36.3829 24.3757 36.3829 12.9143 36.3829Z" fill="#311A8A"/>
<path d="M25.7337 47.1894C25.7337 48.6118 25.7337 49.9859 25.7337 51.394C21.4665 51.394 17.228 51.394 12.9358 51.394C12.9358 50.0181 12.9358 48.6279 12.9358 47.1894C17.1743 47.1894 21.4272 47.1894 25.7337 47.1894Z" fill="#311A8A"/>
<path d="M36.5296 51.3815C36.5296 49.9627 36.5296 48.5886 36.5296 47.1788C40.0811 47.1788 43.604 47.1788 47.1806 47.1788C47.1806 48.5528 47.1806 49.943 47.1806 51.3815C43.6613 51.3815 40.1241 51.3815 36.5296 51.3815Z" fill="#311A8A"/>
</svg>
