<svg width="170" height="170" viewBox="0 0 170 170" fill="none" xmlns="http://www.w3.org/2000/svg">
<g filter="url(#filter0_d_1_77)">
<circle cx="83" cy="81" r="60" fill="white"/>
</g>
<path d="M104.359 62.9844L94.5156 53.1406C93.4219 52.0469 92.0938 51.5 90.5312 51.5H66.625C65.0625 51.5 63.7344 52.0469 62.6406 53.1406C61.5469 54.2344 61 55.5625 61 57.125V105.875C61 107.438 61.5469 108.766 62.6406 109.859C63.7344 110.953 65.0625 111.5 66.625 111.5H100.375C101.938 111.5 103.266 110.953 104.359 109.859C105.453 108.766 106 107.438 106 105.875V66.9688C106 65.4062 105.453 64.0781 104.359 62.9844ZM101.664 65.6797C101.898 65.9141 102.094 66.1875 102.25 66.5H91V55.25C91.3125 55.4062 91.5859 55.6016 91.8203 55.8359L101.664 65.6797ZM100.375 107.75H66.625C66.0781 107.75 65.6094 107.555 65.2188 107.164C64.9062 106.852 64.75 106.422 64.75 105.875V57.125C64.75 56.5781 64.9062 56.1484 65.2188 55.8359C65.6094 55.4453 66.0781 55.25 66.625 55.25H87.25V67.4375C87.25 68.2188 87.5234 68.8828 88.0703 69.4297C88.6172 69.9766 89.2812 70.25 90.0625 70.25H102.25V105.875C102.25 106.422 102.055 106.852 101.664 107.164C101.352 107.555 100.922 107.75 100.375 107.75ZM81.5078 99.8984L78.4609 98.9609C78.3047 98.8828 78.1875 98.8047 78.1094 98.7266C78.0312 98.5703 77.9922 98.4141 77.9922 98.2578L84.7891 74.8203C84.8672 74.6641 84.9453 74.5469 85.0234 74.4688C85.1797 74.3906 85.3359 74.3516 85.4922 74.3516L88.5391 75.2891C88.6953 75.3672 88.8125 75.4844 88.8906 75.6406C88.9688 75.7188 89.0078 75.8359 89.0078 75.9922L82.2109 99.4297C82.1328 99.5859 82.0156 99.7031 81.8594 99.7812C81.7812 99.8594 81.6641 99.8984 81.5078 99.8984ZM75.7656 94.2734L77.9922 91.9297C78.0703 91.8516 78.1094 91.7344 78.1094 91.5781C78.1094 91.3438 78.0312 91.1875 77.875 91.1094L73.4219 87.125L77.875 83.1406C78.0312 83.0625 78.1094 82.9453 78.1094 82.7891C78.1094 82.5547 78.0703 82.3984 77.9922 82.3203L75.7656 79.9766C75.6875 79.8984 75.5312 79.8594 75.2969 79.8594C75.1406 79.7812 75.0234 79.8203 74.9453 79.9766L67.7969 86.6562C67.6406 86.8125 67.5625 86.9688 67.5625 87.125C67.5625 87.2812 67.6406 87.4375 67.7969 87.5938L74.9453 94.2734C75.0234 94.4297 75.1406 94.5078 75.2969 94.5078C75.5312 94.4297 75.6875 94.3516 75.7656 94.2734ZM92.0547 94.2734L99.2031 87.5938C99.3594 87.4375 99.4375 87.2812 99.4375 87.125C99.4375 86.9688 99.3594 86.8125 99.2031 86.6562L92.0547 79.9766C91.9766 79.8203 91.8203 79.7812 91.5859 79.8594C91.4297 79.8594 91.3125 79.8984 91.2344 79.9766L89.0078 82.3203C88.9297 82.3984 88.8906 82.5547 88.8906 82.7891C88.8906 82.9453 88.9688 83.0625 89.125 83.1406L93.5781 87.125L89.125 91.1094C88.9688 91.1875 88.8906 91.3438 88.8906 91.5781C88.8906 91.7344 88.9297 91.8516 89.0078 91.9297L91.2344 94.2734C91.3125 94.3516 91.4297 94.4297 91.5859 94.5078C91.8203 94.5078 91.9766 94.4297 92.0547 94.2734Z" fill="#311A8A"/>
<defs>
<filter id="filter0_d_1_77" x="0" y="0" width="170" height="170" filterUnits="userSpaceOnUse" color-interpolation-filters="sRGB">
<feFlood flood-opacity="0" result="BackgroundImageFix"/>
<feColorMatrix in="SourceAlpha" type="matrix" values="0 0 0 0 0 0 0 0 0 0 0 0 0 0 0 0 0 0 127 0" result="hardAlpha"/>
<feOffset dx="2" dy="4"/>
<feGaussianBlur stdDeviation="12.5"/>
<feComposite in2="hardAlpha" operator="out"/>
<feColorMatrix type="matrix" values="0 0 0 0 0 0 0 0 0 0 0 0 0 0 0 0 0 0 0.12 0"/>
<feBlend mode="normal" in2="BackgroundImageFix" result="effect1_dropShadow_1_77"/>
<feBlend mode="normal" in="SourceGraphic" in2="effect1_dropShadow_1_77" result="shape"/>
</filter>
</defs>
</svg>
