<svg width="170" height="170" viewBox="0 0 170 170" fill="none" xmlns="http://www.w3.org/2000/svg">
<g filter="url(#filter0_d_1_78)">
<circle cx="83" cy="81" r="60" fill="white"/>
</g>
<path d="M110.998 94.0938L97.3047 80.4004L110.441 67.2637C111.48 66.2246 112 64.9629 112 63.4785C112 61.9941 111.48 60.7324 110.441 59.6934L105.432 54.6836C104.393 53.6445 103.131 53.125 101.646 53.125C100.162 53.125 98.9004 53.6445 97.8613 54.6836L84.7246 67.8203L71.0312 54.127C70.3633 53.459 69.5098 53.125 68.4707 53.125C67.5059 53.125 66.6895 53.459 66.0215 54.127L56.002 64.1465C55.334 64.8145 55 65.668 55 66.707C55 67.6719 55.334 68.4883 56.002 69.1562L69.6953 82.8496L57.1152 95.4297L55 107.342C54.8516 108.158 55.0742 108.826 55.668 109.346C56.3359 109.939 57.041 110.199 57.7832 110.125L69.6953 108.01L82.2754 95.4297L95.9688 109.123C96.6367 109.791 97.4531 110.125 98.418 110.125C99.457 110.125 100.311 109.791 100.979 109.123L110.998 99.1035C111.666 98.4355 112 97.6191 112 96.6543C112 95.6152 111.666 94.7617 110.998 94.0938ZM100.311 57.2441C100.533 57.0215 100.941 56.9102 101.535 56.9102C102.203 56.9102 102.648 57.0215 102.871 57.2441L107.881 62.2539C108.252 62.625 108.438 63.0703 108.438 63.5898C108.438 64.0352 108.252 64.4434 107.881 64.8145L102.76 69.9355L95.1895 62.3652L100.311 57.2441ZM58.5625 66.707L68.4707 56.6875L74.7051 62.9219L70.3633 67.2637C70.2148 67.4121 70.1406 67.6348 70.1406 67.9316C70.1406 68.1543 70.2148 68.3398 70.3633 68.4883L71.6992 69.8242C71.8477 69.9727 72.0332 70.0469 72.2559 70.0469C72.5527 70.0469 72.7754 69.9727 72.9238 69.8242L77.2656 65.4824L82.1641 70.3809L72.2559 80.2891L58.5625 66.707ZM68.0254 104.67L58.8965 106.34L60.4551 97.0996L92.7402 64.8145L100.311 72.3848L68.0254 104.67ZM98.5293 106.562L84.8359 92.8691L94.7441 82.9609L99.7539 87.8594L95.3008 92.2012C95.1523 92.3496 95.0781 92.5723 95.0781 92.8691C95.0781 93.0918 95.1523 93.2773 95.3008 93.4258L96.6367 94.7617C96.7852 94.9102 96.9707 94.9844 97.1934 94.9844C97.4902 94.9844 97.7129 94.9102 97.8613 94.7617L102.203 90.3086L108.438 96.543L98.5293 106.562Z" fill="#311A8A"/>
<defs>
<filter id="filter0_d_1_78" x="0" y="0" width="170" height="170" filterUnits="userSpaceOnUse" color-interpolation-filters="sRGB">
<feFlood flood-opacity="0" result="BackgroundImageFix"/>
<feColorMatrix in="SourceAlpha" type="matrix" values="0 0 0 0 0 0 0 0 0 0 0 0 0 0 0 0 0 0 127 0" result="hardAlpha"/>
<feOffset dx="2" dy="4"/>
<feGaussianBlur stdDeviation="12.5"/>
<feComposite in2="hardAlpha" operator="out"/>
<feColorMatrix type="matrix" values="0 0 0 0 0 0 0 0 0 0 0 0 0 0 0 0 0 0 0.12 0"/>
<feBlend mode="normal" in2="BackgroundImageFix" result="effect1_dropShadow_1_78"/>
<feBlend mode="normal" in="SourceGraphic" in2="effect1_dropShadow_1_78" result="shape"/>
</filter>
</defs>
</svg>
