<svg width="170" height="170" viewBox="0 0 170 170" fill="none" xmlns="http://www.w3.org/2000/svg">
<g filter="url(#filter0_d_1_82)">
<circle cx="83" cy="81" r="60" fill="white"/>
</g>
<path d="M83 53.1562C87.9844 53.1562 92.7422 54.5156 97.0469 57.0078C101.352 59.5 104.75 62.8984 107.242 67.2031C109.734 71.5078 111.094 76.2656 111.094 81.25C111.094 86.3477 109.734 90.9922 107.242 95.2969C104.75 99.6016 101.352 103.113 97.0469 105.605C92.7422 108.098 87.9844 109.344 83 109.344C77.9023 109.344 73.2578 108.098 68.9531 105.605C64.6484 103.113 61.1367 99.6016 58.6445 95.2969C56.1523 90.9922 54.9062 86.3477 54.9062 81.25C54.9062 76.2656 56.1523 71.5078 58.6445 67.2031C61.1367 62.8984 64.6484 59.5 68.9531 57.0078C73.2578 54.5156 77.9023 53.1562 83 53.1562ZM57.7383 81.25C57.7383 86.2344 58.9844 90.6523 61.5898 94.7305C64.1953 98.8086 67.707 101.98 72.0117 104.02L59.8906 70.9414C58.418 74.2266 57.7383 77.625 57.7383 81.25ZM83 106.512C85.832 106.512 88.6641 106.059 91.3828 105.039L91.1562 104.699L83.4531 83.4023L75.8633 105.492C78.1289 106.172 80.5078 106.512 83 106.512ZM86.5117 69.3555L95.5742 96.543L98.293 87.5938C98.8594 85.5547 99.3125 84.1953 99.5391 83.2891C99.8789 82.043 100.105 80.9102 100.105 80.0039C100.105 78.6445 99.8789 77.2852 99.4258 75.9258C99.0859 75.1328 98.6328 74.1133 97.9531 72.9805L97.6133 72.5273C96.9336 71.3945 96.3672 70.4883 96.1406 69.8086C95.6875 68.9023 95.4609 67.9961 95.4609 67.0898C95.4609 65.957 95.8008 64.8242 96.707 63.918C97.5 63.0117 98.5195 62.5586 99.7656 62.5586L100.105 62.6719C97.7266 60.6328 95.1211 58.9336 92.1758 57.8008C89.2305 56.668 86.1719 55.9883 83 55.9883C78.6953 55.9883 74.6172 57.0078 70.8789 59.0469C67.1406 61.0859 64.1953 63.918 61.9297 67.3164L63.5156 67.4297C64.6484 67.4297 66.1211 67.4297 67.9336 67.2031L70.1992 67.0898C70.6523 67.0898 70.8789 67.3164 71.1055 67.543C71.332 67.8828 71.332 68.2227 71.2188 68.5625C71.1055 69.0156 70.8789 69.1289 70.4258 69.1289L67.4805 69.3555L76.7695 96.7695L82.207 80.2305L78.3555 69.4688L75.6367 69.1289C75.1836 69.1289 74.957 69.0156 74.8438 68.6758C74.6172 68.3359 74.6172 67.9961 74.8438 67.6562C75.0703 67.3164 75.4102 67.0898 75.8633 67.0898L78.2422 67.2031C80.0547 67.4297 81.4141 67.4297 82.5469 67.4297C83.5664 67.4297 85.0391 67.4297 86.8516 67.2031L89.2305 67.0898C89.5703 67.0898 89.9102 67.3164 90.1367 67.543C90.3633 67.8828 90.3633 68.2227 90.25 68.5625C90.0234 69.0156 89.7969 69.1289 89.3438 69.1289C88.3242 69.2422 87.418 69.3555 86.5117 69.3555ZM95.6875 103.113C99.5391 100.848 102.598 97.7891 104.863 93.9375C107.129 90.0859 108.262 85.8945 108.262 81.25C108.262 76.9453 107.242 72.9805 105.203 69.1289C105.203 70.0352 105.316 70.8281 105.316 71.7344C105.316 74.5664 104.637 77.625 103.391 80.7969L95.6875 103.113Z" fill="#311A8A"/>
<defs>
<filter id="filter0_d_1_82" x="0" y="0" width="170" height="170" filterUnits="userSpaceOnUse" color-interpolation-filters="sRGB">
<feFlood flood-opacity="0" result="BackgroundImageFix"/>
<feColorMatrix in="SourceAlpha" type="matrix" values="0 0 0 0 0 0 0 0 0 0 0 0 0 0 0 0 0 0 127 0" result="hardAlpha"/>
<feOffset dx="2" dy="4"/>
<feGaussianBlur stdDeviation="12.5"/>
<feComposite in2="hardAlpha" operator="out"/>
<feColorMatrix type="matrix" values="0 0 0 0 0 0 0 0 0 0 0 0 0 0 0 0 0 0 0.12 0"/>
<feBlend mode="normal" in2="BackgroundImageFix" result="effect1_dropShadow_1_82"/>
<feBlend mode="normal" in="SourceGraphic" in2="effect1_dropShadow_1_82" result="shape"/>
</filter>
</defs>
</svg>
